<?xml version="1.0" standalone="no"?>
<!DOCTYPE svg PUBLIC "-//W3C//DTD SVG 20010904//EN"
 "http://www.w3.org/TR/2001/REC-SVG-20010904/DTD/svg10.dtd">
<svg version="1.0" xmlns="http://www.w3.org/2000/svg"
 width="260.000000pt" height="260.000000pt" viewBox="0 0 260.000000 260.000000"
 preserveAspectRatio="xMidYMid meet">
<metadata>
Created by potrace 1.14, written by Peter Selinger 2001-2017
</metadata>
<g transform="translate(0.000000,260.000000) scale(0.100000,-0.100000)"
fill="#000000" stroke="none">
<path d="M380 1295 l0 -705 180 0 180 0 0 295 0 295 145 0 145 0 0 135 0 135
-145 0 -145 0 0 135 0 135 160 0 160 0 0 140 0 140 -340 0 -340 0 0 -705z"/>
<path d="M1140 1295 l0 -705 155 0 155 0 0 427 c0 234 2 424 5 422 3 -4 125
-823 125 -844 0 -3 49 -5 109 -5 96 0 110 2 115 18 2 9 28 197 58 417 l53 400
3 -418 2 -417 155 0 155 0 0 705 0 705 -229 0 -228 0 -6 -37 c-3 -21 -20 -157
-38 -302 -20 -155 -36 -256 -40 -245 -4 10 -24 134 -44 274 -19 140 -38 267
-41 283 l-6 27 -229 0 -229 0 0 -705z"/>
</g>
</svg>
